<svg xmlns="http://www.w3.org/2000/svg" viewBox="0 0 32 32">
    <title>14-House</title>
    <g id="_14-House" data-name="14-House" color="red">
        <path d="M31.62,12.22l-15-12a1,1,0,0,0-1.25,0l-15,12A1,1,0,0,0,1,14H3V31a1,1,0,0,0,1,1H24V30H20V21a1,1,0,0,0-1-1H13a1,1,0,0,0-1,1v9H5V14H22V12H3.85L16,2.28,28.15,12H28a1,1,0,0,0-1,1v6h2V14h2a1,1,0,0,0,.62-1.78ZM14,22h4v8H14Z" color="red" />
        <path d="M25,26.59l-1.29-1.29-1.41,1.41,2,2a1,1,0,0,0,1.41,0l6-6-1.41-1.41Z" color="red" />
    </g>
</svg>